<?xml version="1.0" ?><!DOCTYPE svg  PUBLIC '-//W3C//DTD SVG 1.1//EN'  'http://www.w3.org/Graphics/SVG/1.1/DTD/svg11.dtd'><svg height="176.389mm" style="shape-rendering:geometricPrecision; text-rendering:geometricPrecision; image-rendering:optimizeQuality; fill-rule:evenodd; clip-rule:evenodd" version="1.1" viewBox="0 0 17639 17639" width="176.389mm" xml:space="preserve" xmlns="http://www.w3.org/2000/svg" xmlns:xlink="http://www.w3.org/1999/xlink"><defs><style type="text/css">
   <![CDATA[
    .fil0 {fill:#1E7145}
   ]]>
  </style></defs><g id="Layer_x0020_1"><path class="fil0" d="M9596 3634l0 10265 -6103 -1058 0 -8149 6103 -1058zm290 1185l4053 0c224,0 267,44 267,267l0 7360c0,223 -43,267 -267,267l-4053 0 0 -694 1547 0 0 -1066 -1547 0 0 -320 1547 0 0 -1067 -1547 0 0 -320 1547 0 0 -1067 -1547 0 0 -320 1547 0 0 -1066 -1547 0 0 -320 1547 0 0 -1067 -1547 0 0 -587zm-7803 10774l13474 0 2 -13476 -13478 0 2 13476z"/><polygon class="fil0" points="7129,6861 6573,8133 6141,6938 5446,6969 6136,8710 5359,10413 6042,10464 6590,9239 7100,10535 7886,10578 7034,8703 7849,6809 "/><polygon class="fil0" points="11753,12019 13513,12019 13513,10953 11753,10953 "/><polygon class="fil0" points="11753,10633 13513,10633 13513,9566 11753,9566 "/><polygon class="fil0" points="11753,9246 13513,9246 13513,8179 11753,8179 "/><polygon class="fil0" points="11753,6473 13513,6473 13513,5406 11753,5406 "/><polygon class="fil0" points="11753,7859 13513,7859 13513,6793 11753,6793 "/></g></svg>