<?xml version="1.0" encoding="UTF-8" standalone="no"?>
<!-- Created with Inkscape (http://www.inkscape.org/) -->

<svg
   width="64pt"
   height="64pt"
   viewBox="0 0 22.577778 22.577778"
   version="1.1"
   id="svg831"
   inkscape:version="1.1.2 (b8e25be833, 2022-02-05)"
   sodipodi:docname="Export - Unblash - 64px.svg"
   inkscape:export-filename="E:\Project Design\TR Icon Design Project\Carlos - Icon Design Project\September\Done\100%\Flat\04 - Microwave.png"
   inkscape:export-xdpi="576"
   inkscape:export-ydpi="576"
   xmlns:inkscape="http://www.inkscape.org/namespaces/inkscape"
   xmlns:sodipodi="http://sodipodi.sourceforge.net/DTD/sodipodi-0.dtd"
   xmlns="http://www.w3.org/2000/svg"
   xmlns:svg="http://www.w3.org/2000/svg"
   xmlns:rdf="http://www.w3.org/1999/02/22-rdf-syntax-ns#"
   xmlns:cc="http://creativecommons.org/ns#"
   xmlns:dc="http://purl.org/dc/elements/1.1/">
  <defs
     id="defs825">
    <pattern
       id="EMFhbasepattern"
       patternUnits="userSpaceOnUse"
       width="6"
       height="6"
       x="0"
       y="0" />
    <pattern
       id="EMFhbasepattern-9"
       patternUnits="userSpaceOnUse"
       width="6"
       height="6"
       x="0"
       y="0" />
    <pattern
       id="EMFhbasepattern-0"
       patternUnits="userSpaceOnUse"
       width="6"
       height="6"
       x="0"
       y="0" />
    <pattern
       id="EMFhbasepattern-7"
       patternUnits="userSpaceOnUse"
       width="6"
       height="6"
       x="0"
       y="0" />
    <pattern
       id="EMFhbasepattern-2"
       patternUnits="userSpaceOnUse"
       width="6"
       height="6"
       x="0"
       y="0" />
    <pattern
       id="EMFhbasepattern-98"
       patternUnits="userSpaceOnUse"
       width="6"
       height="6"
       x="0"
       y="0" />
    <pattern
       id="EMFhbasepattern-6"
       patternUnits="userSpaceOnUse"
       width="6"
       height="6"
       x="0"
       y="0" />
    <pattern
       id="EMFhbasepattern-01"
       patternUnits="userSpaceOnUse"
       width="6"
       height="6"
       x="0"
       y="0" />
    <pattern
       id="EMFhbasepattern-07"
       patternUnits="userSpaceOnUse"
       width="6"
       height="6"
       x="0"
       y="0" />
    <pattern
       id="EMFhbasepattern-8"
       patternUnits="userSpaceOnUse"
       width="6"
       height="6"
       x="0"
       y="0" />
    <pattern
       id="EMFhbasepattern-4"
       patternUnits="userSpaceOnUse"
       width="6"
       height="6"
       x="0"
       y="0" />
    <pattern
       id="EMFhbasepattern-40"
       patternUnits="userSpaceOnUse"
       width="6"
       height="6"
       x="0"
       y="0" />
    <pattern
       id="EMFhbasepattern-08"
       patternUnits="userSpaceOnUse"
       width="6"
       height="6"
       x="0"
       y="0" />
    <pattern
       id="EMFhbasepattern-04"
       patternUnits="userSpaceOnUse"
       width="6"
       height="6"
       x="0"
       y="0" />
    <pattern
       id="EMFhbasepattern-014"
       patternUnits="userSpaceOnUse"
       width="6"
       height="6"
       x="0"
       y="0" />
    <pattern
       id="EMFhbasepattern-27"
       patternUnits="userSpaceOnUse"
       width="6"
       height="6"
       x="0"
       y="0" />
    <pattern
       id="EMFhbasepattern-09"
       patternUnits="userSpaceOnUse"
       width="6"
       height="6"
       x="0"
       y="0" />
    <pattern
       id="EMFhbasepattern-5"
       patternUnits="userSpaceOnUse"
       width="6"
       height="6"
       x="0"
       y="0" />
    <pattern
       id="EMFhbasepattern-018"
       patternUnits="userSpaceOnUse"
       width="6"
       height="6"
       x="0"
       y="0" />
  </defs>
  <sodipodi:namedview
     id="base"
     pagecolor="#ffffff"
     bordercolor="#666666"
     borderopacity="1.0"
     inkscape:pageopacity="0.0"
     inkscape:pageshadow="2"
     inkscape:zoom="8.7304688"
     inkscape:cx="42.895749"
     inkscape:cy="47.07651"
     inkscape:document-units="pt"
     inkscape:current-layer="layer1"
     showgrid="false"
     units="pt"
     inkscape:window-width="958"
     inkscape:window-height="1041"
     inkscape:window-x="953"
     inkscape:window-y="0"
     inkscape:window-maximized="0"
     inkscape:pagecheckerboard="true"
     inkscape:showpageshadow="false"
     inkscape:object-paths="true"
     inkscape:snap-intersection-paths="true"
     inkscape:snap-smooth-nodes="true"
     inkscape:snap-midpoints="true"
     showguides="true"
     inkscape:snap-bbox="true"
     inkscape:bbox-nodes="true"
     inkscape:snap-nodes="false"
     inkscape:snap-global="true"
     inkscape:snap-others="false">
    <inkscape:grid
       type="xygrid"
       id="grid1378" />
    <sodipodi:guide
       position="0.97013831,21.607643"
       orientation="78.000048,0"
       id="guide1380"
       inkscape:locked="false" />
    <sodipodi:guide
       position="0.97013831,0.97013129"
       orientation="0,78.000005"
       id="guide1382"
       inkscape:locked="false" />
    <sodipodi:guide
       position="21.607639,0.97013129"
       orientation="-78.000048,0"
       id="guide1384"
       inkscape:locked="false" />
    <sodipodi:guide
       position="21.607639,21.607643"
       orientation="0,-78.000005"
       id="guide1386"
       inkscape:locked="false" />
  </sodipodi:namedview>
  <metadata
     id="metadata828">
    <rdf:RDF>
      <cc:Work
         rdf:about="">
        <dc:format>image/svg+xml</dc:format>
        <dc:type
           rdf:resource="http://purl.org/dc/dcmitype/StillImage" />
      </cc:Work>
    </rdf:RDF>
  </metadata>
  <g
     inkscape:label="Icon"
     inkscape:groupmode="layer"
     id="layer1"
     transform="translate(0,-274.42223)">
    <g
       id="g3421"
       style="display:inline;stroke-width:0.794878"
       transform="matrix(1.2580543,0,0,1.2580543,-75.174087,-39.99971)">
      <path
         style="color:#000000;fill:#cccccc;stroke-width:0.794878;stroke-linecap:round;stroke-linejoin:round;-inkscape-stroke:none"
         d="m 68.771484,256.39258 -3.058593,1.33398 a 0.26460996,0.26460996 0 0 0 -0.150391,0.31055 l 0.394531,1.47656 c 0.108933,0.41677 0.48916,0.70899 0.919922,0.70899 h 3.703125 c 0.430763,0 0.810987,-0.29222 0.919922,-0.70899 l 0.394531,-1.47656 a 0.26460996,0.26460996 0 0 0 -0.140625,-0.30664 l -2.761719,-1.33203 a 0.26460996,0.26460996 0 0 0 -0.220703,-0.006 z"
         id="path562303" />
      <path
         id="path607953"
         style="fill:#8f8f8f;fill-opacity:1;stroke-width:3.00427;stroke-linecap:round;stroke-linejoin:round"
         d="m 255.75977,-80.699219 c -2.57972,0 -4.70118,2.121456 -4.70118,4.701172 v 0.566406 C 251.57084,-75.155219 252.15407,-75 252.76367,-75 h 13.9961 c 0.60962,0 1.19282,-0.155208 1.70507,-0.431641 v -0.566406 c 0,-2.579716 -2.1234,-4.701172 -4.70312,-4.701172 z"
         transform="matrix(0.26458334,0,0,0.26458334,0,280.06666)" />
      <path
         id="path565712"
         style="color:#000000;fill:#8f8f8f;fill-opacity:1;stroke-width:3.00427;stroke-linecap:round;stroke-linejoin:round;-inkscape-stroke:none"
         d="m 247.79492,-83.261719 0.69141,2.585938 c 2.42015,0.287473 5.91721,0.654297 11.27539,0.654297 5.35699,0 8.85326,-0.366843 11.27344,-0.654297 l 0.6914,-2.585938 z"
         transform="matrix(0.26458334,0,0,0.26458334,0,280.06666)"
         sodipodi:nodetypes="ccsccc" />
      <path
         style="color:#000000;fill:#3a4d5c;stroke-width:0.794878;stroke-linecap:round;stroke-linejoin:round;-inkscape-stroke:none"
         d="m 69.787109,259.69336 a 0.26460996,0.26460996 0 0 0 -0.265625,0.26562 v 1.0586 a 0.26460996,0.26460996 0 0 0 0.265625,0.26367 h 2.410157 l 1.910156,3.30859 a 0.26460996,0.26460996 0 0 0 0.228515,0.13086 h 1.222657 a 0.26460996,0.26460996 0 0 0 0.228515,-0.39648 l -2.332031,-4.03906 c -0.210776,-0.36508 -0.601887,-0.5918 -1.023437,-0.5918 z"
         id="path491658" />
      <path
         id="path619683"
         style="color:#000000;fill:#143441;fill-opacity:1;stroke-width:3.00427;stroke-linecap:round;stroke-linejoin:round;-inkscape-stroke:none"
         d="m 263.76172,-77.001953 a 1.0001006,1.0001006 0 0 0 -1.00391,1.003906 v 0.996094 h 9 c 1.59326,0 3.07056,0.856498 3.86719,2.236328 L 284.15039,-58 h 1.42578 a 1.0001006,1.0001006 0 0 0 0.86328,-1.498047 L 277.625,-74.765625 c -0.79663,-1.37983 -2.27393,-2.236328 -3.86719,-2.236328 z"
         transform="matrix(0.26458334,0,0,0.26458334,0,280.06666)" />
      <path
         id="path610031"
         style="color:#000000;fill:#143441;fill-opacity:1;stroke-width:3.00427;stroke-linecap:round;stroke-linejoin:round;-inkscape-stroke:none"
         d="m 263.76172,-77.001953 a 1.0001006,1.0001006 0 0 0 -1.00391,1.003906 v 4.001953 A 1.0001006,1.0001006 0 0 0 263.76172,-71 h 4.70312 v -4.998047 c 0,-0.344635 -0.0376,-0.679561 -0.10937,-1.003906 z"
         transform="matrix(0.26458334,0,0,0.26458334,0,280.06666)" />
      <path
         style="color:#000000;fill:#3a4d5c;stroke-width:0.794878;stroke-linecap:round;stroke-linejoin:round;-inkscape-stroke:none"
         d="m 68.728516,262.33984 a 0.2645835,0.2645835 0 0 0 -0.265625,0.26563 v 0.5293 a 0.2645835,0.2645835 0 0 0 0.265625,0.26367 0.2645835,0.2645835 0 0 0 0.263671,-0.26367 v -0.5293 a 0.2645835,0.2645835 0 0 0 -0.263671,-0.26563 z"
         id="path5098" />
      <path
         style="color:#000000;fill:#3a4d5c;fill-opacity:1;stroke-width:0.794878;stroke-linecap:round;stroke-linejoin:round;-inkscape-stroke:none"
         d="m 65.023437,259.69336 c -0.421549,0 -0.810708,0.22672 -1.021484,0.5918 l -2.332031,4.03906 a 0.26460996,0.26460996 0 0 0 0.228515,0.39648 h 1.222657 a 0.26460996,0.26460996 0 0 0 0.228515,-0.13086 l 1.910157,-3.30859 h 2.410156 a 0.26460996,0.26460996 0 0 0 0.265625,-0.26367 v -1.0586 a 0.26460996,0.26460996 0 0 0 -0.265625,-0.26562 z"
         id="path479595" />
      <path
         id="path617666"
         style="color:#000000;fill:#143441;fill-opacity:1;stroke-width:3.00427;stroke-linecap:round;stroke-linejoin:round;-inkscape-stroke:none"
         d="m 245.75781,-77.001953 c -1.59325,0 -3.06469,0.856498 -3.86133,2.236328 l -0.14062,0.242187 c 0.61093,-0.308735 1.29441,-0.478515 2.00195,-0.478515 h 10.00196 c 0.55531,-0.0021 1.00602,0.448592 1.0039,1.003906 V -71 h 0.9961 c 0.55226,0.0021 1.00169,-0.443833 1.0039,-0.996094 v -4.001953 c 0.002,-0.555314 -0.44859,-1.00602 -1.0039,-1.003906 z M 239.43166,-58.494141 246.65039,-71 h -0.84568 l -7.50391,13 z"
         transform="matrix(0.26458334,0,0,0.26458334,0,280.06666)"
         sodipodi:nodetypes="sccscccccccsccccc" />
      <path
         id="path608074"
         style="color:#000000;fill:#143441;fill-opacity:1;stroke-width:3.00427;stroke-linecap:round;stroke-linejoin:round;-inkscape-stroke:none"
         d="m 251.16797,-77.001953 c -0.0718,0.324345 -0.10938,0.659271 -0.10938,1.003906 V -71 h 4.70118 a 1.0001006,1.0001006 0 0 0 1.0039,-0.996094 v -4.001953 a 1.0001006,1.0001006 0 0 0 -1.0039,-1.003906 z"
         transform="matrix(0.26458334,0,0,0.26458334,0,280.06666)" />
      <path
         style="color:#000000;fill:#ececec;stroke-width:0.794878;stroke-linecap:round;stroke-linejoin:round;-inkscape-stroke:none"
         d="m 67.669922,259.16602 c -0.435244,0 -0.792969,0.35772 -0.792969,0.79296 v 1.58789 c 3e-6,0.7275 0.594775,1.32227 1.322266,1.32227 h 1.058593 c 0.727491,0 1.322264,-0.59477 1.322266,-1.32227 v -1.58789 c 0,-0.43524 -0.357724,-0.79296 -0.792969,-0.79296 z"
         id="path562317" />
      <path
         style="color:#000000;fill:#3a4d5c;stroke-width:0.794878;stroke-linecap:round;stroke-linejoin:round;-inkscape-stroke:none"
         d="m 72.431641,253.60937 a 0.2645835,0.2645835 0 0 0 -0.263672,0.26368 0.2645835,0.2645835 0 0 0 0.263672,0.26562 h 4.234375 a 0.2645835,0.2645835 0 0 0 0.263671,-0.26562 0.2645835,0.2645835 0 0 0 -0.263671,-0.26368 z"
         id="path3884" />
      <path
         id="path70571"
         style="color:#000000;fill:#143441;fill-opacity:1;stroke-width:3.00427;stroke-linecap:round;stroke-linejoin:round;-inkscape-stroke:none"
         d="m 280.76172,-99.996094 v 2 h 6.00195 v -2 z"
         transform="matrix(0.26458334,0,0,0.26458334,0,280.06666)" />
      <path
         id="path69004"
         style="color:#000000;fill:#143441;fill-opacity:1;stroke-width:3.00427;stroke-linecap:round;stroke-linejoin:round;-inkscape-stroke:none"
         d="m 276.76172,-99.996094 v 2 h 6.00195 v -2 z"
         transform="matrix(0.26458334,0,0,0.26458334,0,280.06666)" />
      <path
         style="color:#000000;fill:#ececec;stroke-width:0.794878;stroke-linecap:round;stroke-linejoin:round;-inkscape-stroke:none"
         d="m 74.285156,253.08008 c -0.289119,0 -0.529297,0.24018 -0.529297,0.52929 v 2.11524 a 0.26460996,0.26460996 0 0 0 0.263672,0.26562 h 1.058594 a 0.26460996,0.26460996 0 0 0 0.265625,-0.26562 v -2.11524 c 0,-0.28911 -0.240178,-0.52929 -0.529297,-0.52929 z"
         id="path562327" />
      <path
         id="path599338"
         style="color:#000000;fill:#cccccc;fill-opacity:1;stroke-width:3.00427;stroke-linecap:round;stroke-linejoin:round;-inkscape-stroke:none"
         d="m 280.76367,-101.99609 c -1.09273,0 -2.00195,0.9073 -2.00195,1.999996 6.4e-4,0 10e-4,0 0.002,0 h 2 c 1.09274,0 2,0.907301 2,2 v 6.998047 h 0.9961 a 1.0001006,1.0001006 0 0 0 1.0039,-1.003906 v -7.994141 c 0,-1.092696 -0.90726,-1.999996 -2,-1.999996 z"
         transform="matrix(0.26458334,0,0,0.26458334,0,280.06666)" />
      <path
         style="color:#000000;fill:#3a4d5c;stroke-width:0.794878;stroke-linecap:round;stroke-linejoin:round;-inkscape-stroke:none"
         d="m 72.738286,257.57412 2.65625,-0.42578 c 0.0033,-6e-4 0.0065,-0.001 0.0098,-0.002 0.423847,-0.0847 0.732422,-0.46039 0.732422,-0.89257 v -0.5293 c 0,-0.43524 -0.357725,-0.79297 -0.792969,-0.79297 l -4.234414,1.4e-4 z"
         id="path448227"
         sodipodi:nodetypes="cccssccc" />
      <path
         id="path585179"
         style="color:#000000;fill:#143441;fill-opacity:1;stroke-width:3.00427;stroke-linecap:round;stroke-linejoin:round;-inkscape-stroke:none"
         d="m 284.76367,-95 -16.0039,0.002 a 1.0001006,1.0001006 0 0 0 -0.9375,0.648438 l -0.50782,1.351562 h 15.44922 c 1.64502,0 2.99805,1.351092 2.99805,2.996094 v 2 c 0,0.425709 -0.0791,0.837734 -0.22461,1.21875 1.31538,-0.499343 2.22461,-1.776619 2.22461,-3.21875 v -2 C 287.76172,-93.646955 286.40869,-95 284.76367,-95 Z"
         transform="matrix(0.26458334,0,0,0.26458334,0,280.06666)" />
      <path
         style="color:#000000;fill:#3a4d5c;stroke-width:0.794878;stroke-linecap:round;stroke-linejoin:round;-inkscape-stroke:none"
         d="m 60.791016,253.60937 a 0.2645835,0.2645835 0 0 0 -0.265625,0.26368 0.2645835,0.2645835 0 0 0 0.265625,0.26562 h 4.232421 a 0.2645835,0.2645835 0 0 0 0.265625,-0.26562 0.2645835,0.2645835 0 0 0 -0.265625,-0.26368 z"
         id="path5285" />
      <path
         id="path73393"
         style="color:#000000;fill:#143441;fill-opacity:1;stroke-width:3.00427;stroke-linecap:round;stroke-linejoin:round;-inkscape-stroke:none"
         d="m 236.75977,-99.996094 v 2 h 6 v -2 z"
         transform="matrix(0.26458334,0,0,0.26458334,0,280.06666)" />
      <path
         id="path71943"
         style="color:#000000;fill:#143441;fill-opacity:1;stroke-width:3.00427;stroke-linecap:round;stroke-linejoin:round;-inkscape-stroke:none"
         d="m 232.75977,-99.996094 v 2 h 6 v -2 z"
         transform="matrix(0.26458334,0,0,0.26458334,0,280.06666)" />
      <path
         style="color:#000000;fill:#ececec;stroke-width:0.794878;stroke-linecap:round;stroke-linejoin:round;-inkscape-stroke:none"
         d="m 62.642578,253.08008 c -0.289119,0 -0.529297,0.24018 -0.529297,0.52929 v 2.11524 a 0.26460996,0.26460996 0 0 0 0.265625,0.26562 H 63.4375 a 0.26460996,0.26460996 0 0 0 0.263672,-0.26562 v -2.11524 c 0,-0.28911 -0.240178,-0.52929 -0.529297,-0.52929 z"
         id="path562339" />
      <path
         id="path596562"
         style="color:#000000;fill:#cccccc;fill-opacity:1;stroke-width:3.00427;stroke-linecap:round;stroke-linejoin:round;-inkscape-stroke:none"
         d="m 236.75977,-101.99609 c -1.09274,0 -2,0.9073 -2,1.999996 h 2 c 1.09273,0 2,0.907301 2,2 v 6.998047 h 1.0039 a 1.0001006,1.0001006 0 0 0 0.9961,-1.003906 v -7.994141 c 0,-1.092696 -0.90727,-1.999996 -2,-1.999996 z"
         transform="matrix(0.26458334,0,0,0.26458334,0,280.06666)" />
      <path
         style="color:#000000;fill:#3a4d5c;fill-opacity:1;stroke-width:0.794878;stroke-linecap:round;stroke-linejoin:round;-inkscape-stroke:none"
         d="m 65.478517,254.93173 -3.365236,-9e-5 c -0.435244,0 -0.792968,0.35773 -0.792969,0.79297 v 0.5293 c 0,0.43218 0.306622,0.80786 0.730469,0.89257 0.0039,7.5e-4 0.0078,10e-4 0.01172,0.002 l 2.65625,0.42578 z"
         id="path429856"
         sodipodi:nodetypes="ccsscccc" />
      <path
         id="path592765"
         style="color:#000000;fill:#143441;fill-opacity:1;stroke-width:3.00427;stroke-linecap:round;stroke-linejoin:round;-inkscape-stroke:none"
         d="m 234.75977,-94.998047 c -1.34367,0 -2.49356,0.901955 -2.86915,2.128906 0.2752,-0.08425 0.56777,-0.128906 0.86915,-0.128906 h 12.71875 a 1.0001006,1.0001006 0 0 1 0.99609,0.886719 l 0.68555,5.884766 1.52148,-0.88086 a 1.0001006,1.0001006 0 0 0 0.49414,-0.980469 l -0.70117,-6.02539 a 1.0001006,1.0001006 0 0 0 -0.99609,-0.884766 z"
         transform="matrix(0.26458334,0,0,0.26458334,0,280.06666)" />
      <path
         style="color:#000000;fill:#a7e3fa;stroke-width:0.420623;stroke-linecap:round;stroke-linejoin:round;-inkscape-stroke:none"
         d="m 69.257559,261.01721 c 2e-6,0.29226 -0.236915,0.52917 -0.529167,0.52917 -0.292252,0 -0.529168,-0.23691 -0.529167,-0.52917 -10e-7,-0.29225 0.236915,-0.52917 0.529167,-0.52917 0.292252,0 0.529169,0.23692 0.529167,0.52917 z"
         id="path562345" />
      <path
         style="color:#000000;fill:#3a4d5c;stroke-width:0.794878;stroke-linecap:round;stroke-linejoin:round;-inkscape-stroke:none"
         d="m 68.728516,260.75195 c 0.149258,0 0.263673,0.11637 0.263671,0.26563 2e-6,0.14927 -0.114407,0.26367 -0.263671,0.26367 -0.149265,0 -0.265626,-0.1144 -0.265625,-0.26367 -10e-7,-0.14926 0.116366,-0.26563 0.265625,-0.26563 z"
         id="path562447" />
      <path
         style="color:#000000;fill:#3a4d5c;stroke-width:0.794878;stroke-linecap:round;stroke-linejoin:round;-inkscape-stroke:none"
         d="m 68.728516,260.22266 c -0.435245,0 -0.792971,0.35968 -0.792969,0.79492 -2e-6,0.43525 0.35773,0.79297 0.792969,0.79297 0.435238,0 0.792971,-0.35772 0.792968,-0.79297 3e-6,-0.43524 -0.357723,-0.79492 -0.792968,-0.79492 z"
         id="path562347" />
      <path
         style="color:#000000;fill:#143441;fill-opacity:1;stroke-width:3.00427;stroke-linecap:round;stroke-linejoin:round;-inkscape-stroke:none"
         d="m 244.45312,-76.804688 c -0.64538,0.198862 -1.23833,0.542799 -1.73242,1.003907 l 3.35157,5.802734 L 246.65039,-71 h 1.15234 z"
         transform="matrix(0.26458334,0,0,0.26458334,0,280.06666)"
         id="path3296" />
      <path
         style="color:#000000;fill:#143441;stroke-width:0.794878;stroke-linecap:round;stroke-linejoin:round;-inkscape-stroke:none"
         d="m 61.320312,264.19141 a 0.2645835,0.2645835 0 0 0 -0.265625,0.26562 0.2645835,0.2645835 0 0 0 0.265625,0.26367 h 2.646485 a 0.2645835,0.2645835 0 0 0 0.263672,-0.26367 0.2645835,0.2645835 0 0 0 -0.263672,-0.26562 z"
         id="path3761" />
      <path
         style="color:#000000;fill:#000000;stroke-width:0.794878;stroke-linecap:round;stroke-linejoin:round;-inkscape-stroke:none"
         d="m 65.832031,256.60742 a 0.2645835,0.2645835 0 0 0 -0.294922,0.23242 0.2645835,0.2645835 0 0 0 0.232422,0.29297 c 0.664366,0.0793 1.407681,0.19727 2.958985,0.19727 1.552223,0 2.294701,-0.11796 2.958984,-0.19727 a 0.2645835,0.2645835 0 0 0 0.232422,-0.29297 0.2645835,0.2645835 0 0 0 -0.294922,-0.23242 c -0.679459,0.0811 -1.370645,0.19336 -2.896484,0.19336 -1.524902,0 -2.216983,-0.11225 -2.896485,-0.19336 z"
         id="path37611" />
      <path
         style="color:#000000;fill:#ececec;stroke-width:0.794878;stroke-linecap:round;stroke-linejoin:round;-inkscape-stroke:none"
         d="m 68.728516,253.60937 c -0.939084,0 -1.40253,0.16071 -1.804688,0.33204 -0.402158,0.17133 -0.737249,0.34206 -1.605469,0.43359 -0.432046,0.0455 -0.824218,0.37042 -0.824218,0.82227 v 2.11523 c 0,0.45123 0.386432,0.78392 0.822265,0.83203 0.657005,0.0725 1.620506,0.22656 3.41211,0.22656 1.7916,0 2.755079,-0.15401 3.412109,-0.22656 0.435834,-0.0481 0.820313,-0.3808 0.820312,-0.83203 v -2.11523 c 0,-0.45185 -0.39024,-0.7767 -0.822265,-0.82227 -0.86822,-0.0915 -1.203311,-0.26226 -1.605469,-0.43359 -0.402158,-0.17133 -0.865604,-0.33203 -1.804687,-0.33204 z"
         id="path562363" />
      <path
         style="color:#000000;fill:#cccccc;fill-opacity:1;stroke-width:0.794878;stroke-linecap:round;stroke-linejoin:round;-inkscape-stroke:none"
         d="m 65.832031,256.60742 a 0.2645835,0.2645835 0 0 0 -0.294922,0.23242 0.2645835,0.2645835 0 0 0 0.232422,0.29297 c 0.664366,0.0793 1.407681,0.19727 2.958985,0.19727 1.552223,0 2.294701,-0.11796 2.958984,-0.19727 a 0.2645835,0.2645835 0 0 0 0.232422,-0.29297 0.2645835,0.2645835 0 0 0 -0.294922,-0.23242 c -0.679459,0.0811 -1.370645,0.19336 -2.896484,0.19336 -1.524902,0 -2.216983,-0.11225 -2.896485,-0.19336 z"
         id="path37611-1" />
      <path
         style="color:#000000;fill:#143441;fill-opacity:1;stroke-width:3.00427;stroke-linecap:round;stroke-linejoin:round;-inkscape-stroke:none"
         d="m 277.75781,-95 v 9.533203 l 2.00196,-0.322265 V -95 Z"
         transform="matrix(0.26458334,0,0,0.26458334,0,280.06666)"
         id="path3886" />
      <path
         style="color:#000000;fill:#143441;stroke-width:3.00427;stroke-linecap:round;stroke-linejoin:round;-inkscape-stroke:none"
         d="M 275.07031,-76.802734 271.72266,-71 h 1.14843 l 0.57813,1.001953 3.35156,-5.802734 c -0.49387,-0.459704 -1.08608,-0.802808 -1.73047,-1.001953 z"
         transform="matrix(0.26458334,0,0,0.26458334,0,280.06666)"
         id="path3890" />
      <path
         style="color:#000000;fill:#143441;stroke-width:0.794878;stroke-linecap:round;stroke-linejoin:round;-inkscape-stroke:none"
         d="m 73.490234,264.19141 a 0.2645835,0.2645835 0 0 0 -0.263672,0.26562 0.2645835,0.2645835 0 0 0 0.263672,0.26367 h 2.646485 a 0.2645835,0.2645835 0 0 0 0.263672,-0.26367 0.2645835,0.2645835 0 0 0 -0.263672,-0.26562 z"
         id="path3892" />
      <path
         style="color:#000000;fill:#dc1c4b;fill-opacity:1;stroke-width:0.794878;stroke-linecap:round;stroke-linejoin:round;-inkscape-stroke:none"
         d="m 71.637765,255.46096 a 0.2645835,0.2645835 0 0 0 -0.263672,0.26368 0.2645835,0.2645835 0 0 0 0.263672,0.26562 0.2645835,0.2645835 0 0 0 0.265625,-0.26562 0.2645835,0.2645835 0 0 0 -0.265625,-0.26368 z"
         id="path4236" />
      <path
         style="color:#000000;fill:#50b86b;fill-opacity:1;stroke-width:0.794878;stroke-linecap:round;stroke-linejoin:round;-inkscape-stroke:none"
         d="m 70.579564,255.46186 a 0.2645835,0.2645835 0 0 0 -0.263672,0.26368 0.2645835,0.2645835 0 0 0 0.263672,0.26562 0.2645835,0.2645835 0 0 0 0.265625,-0.26562 0.2645835,0.2645835 0 0 0 -0.265625,-0.26368 z"
         id="path4421" />
      <path
         style="color:#000000;fill:#dc1c4b;fill-opacity:1;stroke-width:0.794878;stroke-linecap:round;stroke-linejoin:round;-inkscape-stroke:none"
         d="m 69.52123,255.46186 a 0.2645835,0.2645835 0 0 0 -0.263672,0.26368 0.2645835,0.2645835 0 0 0 0.263672,0.26562 0.2645835,0.2645835 0 0 0 0.265625,-0.26562 0.2645835,0.2645835 0 0 0 -0.265625,-0.26368 z"
         id="path4423" />
      <path
         style="color:#000000;fill:#143441;fill-opacity:1;stroke-width:3.00427;stroke-linecap:round;stroke-linejoin:round;-inkscape-stroke:none"
         d="m 239.76367,-94.998047 v 9.212891 l 2,0.320312 v -9.533203 z"
         transform="matrix(0.26458334,0,0,0.26458334,0,280.06666)"
         id="path436486" />
      <path
         id="path582832"
         style="color:#000000;fill:#cccccc;fill-opacity:1;stroke-width:3.00427;stroke-linecap:round;stroke-linejoin:round;-inkscape-stroke:none"
         d="m 259.76172,-99.996094 c -3.5493,0 -5.30035,0.608313 -6.82031,1.25586 -1.51997,0.647546 -2.7869,1.292731 -6.06836,1.638672 -1.33926,0.14104 -2.57658,0.992495 -2.97852,2.236328 0.31193,-0.12 0.64217,-0.200906 0.97852,-0.236328 3.28146,-0.345941 4.54839,-0.991126 6.06836,-1.638672 1.51996,-0.647547 3.27101,-1.25586 6.82031,-1.25586 3.54929,3.8e-5 5.30034,0.608313 6.82031,1.25586 1.51997,0.647546 2.7869,1.292845 6.06836,1.638672 1.63285,0.172233 3.10742,1.399642 3.10742,3.107421 V -84 c 0,0.320424 -0.0503,0.625523 -0.14453,0.910156 1.21461,-0.46989 2.14454,-1.546412 2.14453,-2.910156 v -7.994141 c 0,-1.707779 -1.47457,-2.935188 -3.10742,-3.107421 -3.28146,-0.345827 -4.54839,-0.991126 -6.06836,-1.638672 -1.51997,-0.647547 -3.27102,-1.255822 -6.82031,-1.25586 z"
         transform="matrix(0.26458334,0,0,0.26458334,0,280.06666)" />
      <path
         id="path588973"
         style="color:#000000;fill:#0d202b;fill-opacity:1;stroke-width:3.00427;stroke-linecap:round;stroke-linejoin:round;-inkscape-stroke:none"
         d="m 277.75781,-95 v 2.001953 h 2.00196 V -95 Z"
         transform="matrix(0.26458334,0,0,0.26458334,0,280.06666)" />
      <path
         id="path594644"
         style="color:#000000;fill:#0d202b;fill-opacity:1;stroke-width:3.00427;stroke-linecap:round;stroke-linejoin:round;-inkscape-stroke:none"
         d="m 239.76367,-94.998047 v 2 h 2 v -2 z"
         transform="matrix(0.26458334,0,0,0.26458334,0,280.06666)" />
      <path
         id="path612266"
         style="color:#000000;fill:#143441;fill-opacity:1;stroke-width:3.00427;stroke-linecap:round;stroke-linejoin:round;-inkscape-stroke:none"
         d="M 256.89648,-72.873047 C 257.17059,-72.95697 257.4617,-73 257.76172,-73 c 1.64502,0 2.9961,1.358905 2.99609,3.003906 0,0.301316 -0.0447,0.592041 -0.1289,0.867188 1.227,-0.375546 2.12891,-1.523464 2.1289,-2.867188 C 262.75782,-73.641095 261.40674,-75 259.72265,-75 c -1.34672,0.03375 -2.45543,0.925542 -2.82617,2.126953 z"
         transform="matrix(0.26458334,0,0,0.26458334,0,280.06666)"
         sodipodi:nodetypes="csscscc" />
      <path
         id="path620899"
         style="color:#000000;fill:#0d202b;fill-opacity:1;stroke-width:0.794878;stroke-linecap:round;stroke-linejoin:round;-inkscape-stroke:none"
         d="m 72.779021,259.74645 c -0.115927,0.20068 -0.231854,0.40136 -0.347781,0.60203 0.161388,0.0809 0.303993,0.1991 0.412895,0.34313 0.130742,-0.22668 0.261483,-0.45337 0.392224,-0.68006 -0.129402,-0.12191 -0.287435,-0.21337 -0.457338,-0.2651 z" />
      <path
         id="path622661"
         style="color:#000000;fill:#0d202b;fill-opacity:1;stroke-width:0.794878;stroke-linecap:round;stroke-linejoin:round;-inkscape-stroke:none"
         d="m 64.678223,259.74594 c -0.189683,0.0573 -0.338241,0.15544 -0.458346,0.26508 0.04255,0.0736 0.08509,0.1471 0.127641,0.22065 0.107042,-0.0141 0.215148,-0.008 0.322765,-0.009 h 0.2834 z"
         sodipodi:nodetypes="cccccc" />
    </g>
  </g>
</svg>
